<?xml version="1.0" encoding="UTF-8"?><svg id="a" xmlns="http://www.w3.org/2000/svg" viewBox="0 0 794 128"><defs><style>.d{fill:#1b263b;}</style></defs><path class="d" d="M112,0l-48,64,48,64h-40l-40-40v40H0V0h32s0,40,0,40L72,0h40Z"/><path class="d" d="M168,104l80,.27v23.73h-112V0h112v24l-80.03-.03.03,28.03h64v24h-64v28Z"/><path class="d" d="M400,0v128h-32s-64-72-64-72v72h-32V0h32l64,72V0h32Z"/><polygon class="d" points="488 56 488 80 512 80 512 104 456 104 456 24 544 24 544 0 424 0 424 128 544 128 544 56 488 56"/><path class="d" d="M568,0h112v128h-32v-48h-48v48h-32V0ZM648,24h-48v32h48V24Z"/><path class="d" d="M794,0h-90v16l29,40v72h27.22s0,0,0,0h4.78V56l29-40V0ZM741,16v24l-16-24h16ZM757,40v-24h16l-16,24Z"/></svg>